<?xml version="1.0" standalone="no"?>
<!DOCTYPE svg PUBLIC "-//W3C//DTD SVG 20010904//EN"
 "http://www.w3.org/TR/2001/REC-SVG-20010904/DTD/svg10.dtd">
<svg version="1.0" xmlns="http://www.w3.org/2000/svg"
 width="15rem" height="6rem" viewBox="0 0 760.000000 328.000000"
 preserveAspectRatio="xMidYMid meet">
<rect width="100%" height="100%" fill="transparent"/>
<g transform="translate(0.000000,328.000000) scale(0.100000,-0.100000)"
fill="white" stroke="none" stroke-opacity="0">
<path d="M4470 2743 c-1544 -56 -2847 -382 -3496 -874 -236 -179 -383 -373
-450 -596 -35 -114 -39 -304 -10 -427 l18 -78 38 78 c251 514 1464 953 3005
1089 245 22 902 31 1165 16 602 -34 1140 -130 1595 -283 90 -31 123 -38 136
-30 23 14 770 590 788 607 28 27 -187 156 -382 229 -529 198 -1474 304 -2407
269z"/>
</g>
</svg>
